<svg width="390" height="35" viewBox="0 0 390 35" fill="none" xmlns="http://www.w3.org/2000/svg">
<rect width="390" height="35" fill="#FEF7FF"/>
<path d="M337 14.6998C339.612 14.7 342.124 15.7094 344.017 17.5194C344.159 17.6592 344.387 17.6574 344.527 17.5155L345.89 16.1324C345.961 16.0604 346.001 15.9629 346 15.8614C345.999 15.7599 345.959 15.6629 345.887 15.5917C340.919 10.8028 333.081 10.8028 328.113 15.5917C328.042 15.6628 328.001 15.7599 328 15.8613C327.999 15.9628 328.039 16.0603 328.11 16.1324L329.473 17.5155C329.613 17.6576 329.841 17.6594 329.984 17.5194C331.877 15.7092 334.389 14.6998 337 14.6998ZM337 19.1997C338.435 19.1996 339.819 19.7361 340.883 20.7049C341.027 20.8424 341.253 20.8395 341.394 20.6982L342.754 19.3151C342.826 19.2426 342.866 19.1441 342.865 19.0419C342.864 18.9396 342.822 18.842 342.749 18.7709C339.51 15.7403 334.494 15.7403 331.255 18.7709C331.182 18.842 331.14 18.9396 331.139 19.0419C331.138 19.1442 331.178 19.2427 331.25 19.3151L332.61 20.6982C332.75 20.8395 332.977 20.8424 333.121 20.7049C334.184 19.7368 335.567 19.2003 337 19.1997ZM339.616 22.5006C339.689 22.4288 339.729 22.3299 339.727 22.2273C339.725 22.1248 339.68 22.0276 339.605 21.9588C338.101 20.6798 335.9 20.6798 334.396 21.9588C334.32 22.0276 334.276 22.1247 334.274 22.2272C334.272 22.3298 334.312 22.4287 334.385 22.5006L336.739 24.8902C336.808 24.9605 336.902 25 337 25C337.099 25 337.193 24.9605 337.262 24.8902L339.616 22.5006Z" fill="black"/>
<path d="M352.923 15.2051C352.923 14.4971 353.497 13.9231 354.205 13.9231H371.833C372.541 13.9231 373.115 14.4971 373.115 15.2051V21.2949C373.115 22.0029 372.541 22.5769 371.833 22.5769H354.205C353.497 22.5769 352.923 22.0029 352.923 21.2949V15.2051Z" fill="black"/>
<path opacity="0.4" fill-rule="evenodd" clip-rule="evenodd" d="M354.205 12.9615H371.833C373.072 12.9615 374.077 13.966 374.077 15.2051V21.2949C374.077 22.534 373.072 23.5385 371.833 23.5385H354.205C352.966 23.5385 351.962 22.534 351.962 21.2949V15.2051C351.962 13.966 352.966 12.9615 354.205 12.9615ZM351 15.2051C351 13.435 352.435 12 354.205 12H371.833C373.603 12 375.038 13.435 375.038 15.2051V21.2949C375.038 23.065 373.603 24.5 371.833 24.5H354.205C352.435 24.5 351 23.065 351 21.2949V15.2051ZM377.603 18.25C377.603 19.2351 376.919 20.0605 376 20.2776V16.2224C376.919 16.4395 377.603 17.2649 377.603 18.25Z" fill="black"/>
<path fill-rule="evenodd" clip-rule="evenodd" d="M319.85 13C319.298 13 318.85 13.4477 318.85 14V23C318.85 23.5523 319.298 24 319.85 24H321.15C321.702 24 322.15 23.5523 322.15 23V14C322.15 13.4477 321.702 13 321.15 13H319.85ZM313.9 16.1999C313.9 15.6476 314.348 15.1999 314.9 15.1999H316.2C316.752 15.1999 317.2 15.6476 317.2 16.1999V22.9999C317.2 23.5522 316.752 23.9999 316.2 23.9999H314.9C314.348 23.9999 313.9 23.5522 313.9 22.9999V16.1999ZM309.95 17.4C309.398 17.4 308.95 17.8478 308.95 18.4V23C308.95 23.5523 309.398 24 309.95 24H311.25C311.802 24 312.25 23.5523 312.25 23V18.4C312.25 17.8478 311.802 17.4 311.25 17.4H309.95ZM305.1 24C304.492 24 304 23.5075 304 22.9V20.15C304 19.5425 304.492 19.05 305.1 19.05H306.2C306.808 19.05 307.3 19.5425 307.3 20.15V22.9C307.3 23.5075 306.808 24 306.2 24H305.1Z" fill="black"/>
<path d="M19.3499 25H21.5735V12.3174H19.3323L16.0188 14.6465V16.7295L19.2971 14.4795H19.3499V25ZM28.86 12.0977C26.1266 12.0977 24.1139 13.9346 24.1139 16.4922V16.5098C24.1139 18.8916 25.8366 20.6494 28.2799 20.6494C29.9938 20.6494 31.2594 19.7705 31.7604 18.6104H31.8131C31.8131 18.751 31.8043 18.8828 31.7955 19.0146C31.7077 21.4141 30.8551 23.3652 28.8161 23.3652C27.6823 23.3652 26.9088 22.8027 26.5661 21.9326L26.5397 21.8535H24.2897L24.3073 21.9502C24.7028 23.8662 26.4606 25.2197 28.8073 25.2197C32.0416 25.2197 33.984 22.7148 33.984 18.5225V18.5049C33.984 14.0576 31.6549 12.0977 28.86 12.0977ZM28.86 18.9004C27.4186 18.9004 26.3463 17.8721 26.3463 16.4307V16.4131C26.3463 15.042 27.4801 13.9521 28.8864 13.9521C30.3102 13.9521 31.4176 15.0508 31.4176 16.457V16.4658C31.4176 17.8809 30.3102 18.9004 28.86 18.9004ZM36.4541 16.7031C37.166 16.7031 37.7197 16.1406 37.7197 15.4287C37.7197 14.7168 37.166 14.1631 36.4541 14.1631C35.7422 14.1631 35.1797 14.7168 35.1797 15.4287C35.1797 16.1406 35.7422 16.7031 36.4541 16.7031ZM36.4541 23.1543C37.166 23.1543 37.7197 22.5918 37.7197 21.8799C37.7197 21.168 37.166 20.6143 36.4541 20.6143C35.7422 20.6143 35.1797 21.168 35.1797 21.8799C35.1797 22.5918 35.7422 23.1543 36.4541 23.1543ZM43.9164 25.2197C47.0189 25.2197 48.8998 22.6973 48.8998 18.6631V18.6455C48.8998 14.6113 47.0189 12.0977 43.9164 12.0977C40.805 12.0977 38.933 14.6113 38.933 18.6455V18.6631C38.933 22.6973 40.805 25.2197 43.9164 25.2197ZM43.9164 23.3652C42.2025 23.3652 41.2181 21.5898 41.2181 18.6631V18.6455C41.2181 15.7188 42.2025 13.9609 43.9164 13.9609C45.6214 13.9609 46.6146 15.7188 46.6146 18.6455V18.6631C46.6146 21.5898 45.6214 23.3652 43.9164 23.3652ZM50.113 25H59.0251V23.1455H53.1101V23.0488L55.905 20.3945C58.1374 18.25 58.8318 17.2393 58.8318 15.7451V15.7275C58.8318 13.6357 57.0564 12.0977 54.5163 12.0977C51.9411 12.0977 49.99 13.7588 49.99 16.0791V16.1406H52.1169V16.0791C52.1433 14.8574 53.1277 13.917 54.5339 13.917C55.7556 13.917 56.6081 14.7256 56.6169 15.8594V15.877C56.6169 16.8174 56.2566 17.459 54.5954 19.085L50.113 23.4531V25Z" fill="black"/>
</svg>
