<svg width="48" height="50" viewBox="0 0 48 50" fill="none" xmlns="http://www.w3.org/2000/svg">
<path opacity="0.4" d="M31.4349 3.37629H12.8724C4.82715 3.37629 -3.05176e-05 8.39709 -3.05176e-05 16.8301V36.2065C-3.05176e-05 44.6638 4.82715 49.6846 12.8724 49.6846H31.4116C39.4802 49.6846 44.2841 44.6638 44.2841 36.2308V16.8301C44.3074 8.39709 39.4802 3.37629 31.4349 3.37629Z" fill="#D0BCFF"/>
<path d="M44.353 3.32699C40.1788 -1.06012 36.0978 -1.15761 31.807 3.32699L29.1718 6.05674C28.9387 6.30047 28.8687 6.64169 28.962 6.95854C30.5944 12.9299 35.165 17.7069 40.8783 19.413C40.9483 19.4374 41.0649 19.4374 41.1349 19.4374C41.3681 19.4374 41.6013 19.3399 41.7645 19.1693L44.353 16.4396C46.4751 14.2216 47.5245 12.1012 47.5245 9.93202C47.5245 7.73847 46.4751 5.56929 44.353 3.32699Z" fill="#D0BCFF"/>
<path d="M36.9829 21.4603C36.3532 21.1435 35.7469 20.8267 35.1872 20.4611C34.7208 20.1687 34.2545 19.8518 33.8114 19.5106C33.4383 19.2669 33.0185 18.9013 32.5988 18.5357C32.5521 18.5113 32.4122 18.3895 32.2256 18.1945C31.5027 17.5852 30.7332 16.7565 30.0103 15.8547C29.9636 15.806 29.8237 15.6597 29.7071 15.4404C29.4739 15.1723 29.1241 14.7092 28.821 14.1973C28.5644 13.8561 28.2613 13.3687 27.9815 12.8568C27.6317 12.2475 27.3285 11.6382 27.0487 11.0045C26.7455 10.3221 26.5123 9.68838 26.3024 9.07906L13.7565 22.1915C12.9403 23.0446 12.1474 24.6532 11.9842 25.8475L10.9814 33.1106C10.7716 34.646 11.168 36.084 12.0775 37.0346C12.847 37.8389 13.8964 38.2532 15.0624 38.2532C15.3189 38.2532 15.5754 38.2288 15.8319 38.2045L22.7578 37.1808C23.9005 37.0102 25.4396 36.2059 26.2558 35.3285L38.8018 22.2159C38.2188 22.0209 37.6358 21.7528 36.9829 21.4603Z" fill="#D0BCFF"/>
</svg>
