<svg width="63" height="56" viewBox="0 0 63 56" fill="none" xmlns="http://www.w3.org/2000/svg">
<rect width="63" height="56" rx="4" fill="#DED8E1"/>
<path d="M44.4468 17.8597L35.0499 11.2851C32.4886 9.49058 28.5569 9.58846 26.0935 11.4972L17.9202 17.876C16.2888 19.1485 15 21.7587 15 23.8142V35.0709C15 39.231 18.377 42.6243 22.5371 42.6243H40.1236C44.2836 42.6243 47.6607 39.2473 47.6607 35.0872V24.0263C47.6607 21.824 46.2413 19.1159 44.4468 17.8597ZM32.5539 36.0987C32.5539 36.7676 31.9992 37.3222 31.3303 37.3222C30.6614 37.3222 30.1068 36.7676 30.1068 36.0987V31.2045C30.1068 30.5356 30.6614 29.9809 31.3303 29.9809C31.9992 29.9809 32.5539 30.5356 32.5539 31.2045V36.0987Z" fill="white"/>
</svg>
