<svg width="63" height="56" viewBox="0 0 63 56" fill="none" xmlns="http://www.w3.org/2000/svg">
<rect width="63" height="56" rx="4" fill="#D0BCFF"/>
<path d="M49.0506 19.5871V27.3261H42.3181C42.1201 27.3096 41.6911 27.0621 41.5921 26.8806L39.876 23.6299C39.1994 22.3428 38.0278 21.6168 36.7738 21.6828C35.5197 21.7488 34.4471 22.5903 33.9026 23.9599L31.6254 29.6693L31.2954 28.8112C30.4869 26.7156 28.1767 25.1315 25.8996 25.1315L16.0484 25.181V19.5871C16.0484 13.5807 19.6291 10 25.6355 10H39.4634C45.4698 10 49.0506 13.5807 49.0506 19.5871Z" fill="white"/>
<path d="M49.0506 33.4129V29.7992H42.3181C41.2126 29.7992 39.909 29.0071 39.3974 28.0335L37.6813 24.7828C37.2193 23.9083 36.5593 23.9578 36.1962 24.8653L32.401 34.4525C31.9885 35.525 31.2954 35.525 30.8664 34.4525L28.9853 29.7002C28.5397 28.5451 27.1536 27.6045 25.9161 27.6045L16.0484 27.654V33.4129C16.0484 39.3203 19.5136 42.8845 25.3385 42.9835C25.52 43 25.718 43 25.8996 43H39.1004C39.3479 43 39.5954 43 39.8265 42.9835C45.6183 42.8515 49.0506 39.3038 49.0506 33.4129Z" fill="white"/>
<path d="M16.0495 27.6548V33.1167C16.0165 32.5887 16 32.0276 16 31.4501V27.6548H16.0495Z" fill="white"/>
</svg>
