<svg width="64" height="56" viewBox="0 0 64 56" fill="none" xmlns="http://www.w3.org/2000/svg">
<rect width="64" height="56" rx="4" fill="#D0BCFF"/>
<path d="M50.7093 40.9225H16.2907C15.5851 40.9225 15 41.4686 15 42.1273C15 42.7859 15.5851 43.332 16.2907 43.332H50.7093C51.4149 43.332 52 42.7859 52 42.1273C52 41.4686 51.4149 40.9225 50.7093 40.9225Z" fill="white"/>
<path d="M42.1047 10H24.8954C19.7326 10 18.0116 12.8754 18.0116 16.4255V42.1273H28.3372V32.3927C28.3372 31.5574 29.06 30.8827 29.9549 30.8827H37.0623C37.94 30.8827 38.68 31.5574 38.68 32.3927V42.1273H49.0056V16.4255C48.9884 12.8754 47.2674 10 42.1047 10ZM37.8023 21.6461H34.7907V24.4573C34.7907 25.1159 34.2056 25.662 33.5 25.662C32.7944 25.662 32.2093 25.1159 32.2093 24.4573V21.6461H29.1977C28.4921 21.6461 27.907 21.1 27.907 20.4414C27.907 19.7828 28.4921 19.2366 29.1977 19.2366H32.2093V16.4255C32.2093 15.7668 32.7944 15.2207 33.5 15.2207C34.2056 15.2207 34.7907 15.7668 34.7907 16.4255V19.2366H37.8023C38.5079 19.2366 39.093 19.7828 39.093 20.4414C39.093 21.1 38.5079 21.6461 37.8023 21.6461Z" fill="white"/>
</svg>
