<svg width="63" height="56" viewBox="0 0 63 56" fill="none" xmlns="http://www.w3.org/2000/svg">
<rect width="63" height="56" rx="4" fill="#DED8E1"/>
<path d="M49.0506 18.5871V26.3261H42.3181C42.1201 26.3096 41.6911 26.0621 41.5921 25.8806L39.876 22.6299C39.1994 21.3428 38.0278 20.6168 36.7738 20.6828C35.5197 20.7488 34.4471 21.5903 33.9026 22.9599L31.6254 28.6693L31.2954 27.8112C30.4869 25.7156 28.1767 24.1315 25.8996 24.1315L16.0484 24.181V18.5871C16.0484 12.5807 19.6291 9 25.6355 9H39.4634C45.4698 9 49.0506 12.5807 49.0506 18.5871Z" fill="white"/>
<path d="M49.0506 32.4129V28.7992H42.3181C41.2126 28.7992 39.909 28.0071 39.3974 27.0335L37.6813 23.7828C37.2193 22.9083 36.5593 22.9578 36.1962 23.8653L32.401 33.4525C31.9885 34.525 31.2954 34.525 30.8664 33.4525L28.9853 28.7002C28.5397 27.5451 27.1536 26.6045 25.9161 26.6045L16.0484 26.654V32.4129C16.0484 38.3203 19.5136 41.8845 25.3385 41.9835C25.52 42 25.718 42 25.8996 42H39.1004C39.3479 42 39.5954 42 39.8265 41.9835C45.6183 41.8515 49.0506 38.3038 49.0506 32.4129Z" fill="white"/>
<path d="M16.0495 26.6548V32.1167C16.0165 31.5887 16 31.0276 16 30.4501V26.6548H16.0495Z" fill="white"/>
</svg>
