<svg width="46" height="50" viewBox="0 0 46 50" fill="none" xmlns="http://www.w3.org/2000/svg">
<path d="M44.2794 9.25151C40.537 8.87959 36.7945 8.60065 33.0288 8.39145V8.3682L32.5174 5.34635C32.1688 3.20781 31.6574 0 26.218 0H20.1278C14.7117 0 14.2003 3.06834 13.8284 5.32311L13.3402 8.29847C11.1784 8.43794 9.01666 8.57741 6.85488 8.78661L2.1129 9.25151C1.13661 9.34449 0.439257 10.2046 0.532237 11.1576C0.625217 12.1106 1.46204 12.808 2.43833 12.715L7.18031 12.2501C19.3608 11.0414 31.6341 11.5063 43.954 12.7383H44.1399C45.0232 12.7383 45.7903 12.0642 45.8833 11.1576C45.953 10.2046 45.2557 9.34449 44.2794 9.25151Z" fill="#D0BCFF"/>
<path opacity="0.3991" d="M40.0024 16.0158C39.4445 15.4347 38.6774 15.1093 37.8871 15.1093H8.50552C7.71519 15.1093 6.92486 15.4347 6.39023 16.0158C5.85559 16.5969 5.55341 17.3873 5.5999 18.2008L7.04109 42.0502C7.29678 45.5835 7.62221 50 15.7347 50H30.6579C38.7704 50 39.0961 45.6067 39.3515 42.0502L40.7927 18.2241C40.8392 17.3873 40.537 16.5969 40.0024 16.0158Z" fill="#D0BCFF"/>
<path fill-rule="evenodd" clip-rule="evenodd" d="M17.5718 36.6109C17.5718 35.6481 18.3524 34.8675 19.3153 34.8675H27.0558C28.0187 34.8675 28.7992 35.6481 28.7992 36.6109C28.7992 37.5737 28.0187 38.3543 27.0558 38.3543H19.3153C18.3524 38.3543 17.5718 37.5737 17.5718 36.6109Z" fill="#D0BCFF"/>
<path fill-rule="evenodd" clip-rule="evenodd" d="M15.6422 27.3129C15.6422 26.3501 16.4227 25.5695 17.3855 25.5695H29.008C29.9708 25.5695 30.7514 26.3501 30.7514 27.3129C30.7514 28.2757 29.9708 29.0563 29.008 29.0563H17.3855C16.4227 29.0563 15.6422 28.2757 15.6422 27.3129Z" fill="#D0BCFF"/>
</svg>
