<svg width="390" height="61" viewBox="0 0 390 61" fill="none" xmlns="http://www.w3.org/2000/svg">
<rect width="390" height="61" fill="#FEF7FF"/>
<path d="M99.3086 20.8594H104.486C105.661 20.8594 106.653 21.0384 107.462 21.3965C108.278 21.7546 108.898 22.2845 109.32 22.9863C109.75 23.681 109.965 24.5368 109.965 25.5537C109.965 26.2699 109.818 26.9251 109.524 27.5195C109.238 28.1068 108.823 28.6081 108.278 29.0234C107.741 29.4316 107.097 29.736 106.345 29.9365L105.765 30.1621H100.898L100.877 28.4756H104.551C105.296 28.4756 105.915 28.3467 106.409 28.0889C106.903 27.8239 107.276 27.4694 107.526 27.0254C107.777 26.5814 107.902 26.0908 107.902 25.5537C107.902 24.9521 107.784 24.4258 107.548 23.9746C107.312 23.5234 106.939 23.1761 106.431 22.9326C105.929 22.682 105.281 22.5566 104.486 22.5566H101.382V36.5H99.3086V20.8594ZM108.45 36.5L104.647 29.4102L106.807 29.3994L110.663 36.3711V36.5H108.45ZM117.388 36.7148C116.578 36.7148 115.844 36.5788 115.186 36.3066C114.534 36.0273 113.972 35.637 113.499 35.1357C113.034 34.6344 112.675 34.04 112.425 33.3525C112.174 32.665 112.049 31.9131 112.049 31.0967V30.6455C112.049 29.7002 112.188 28.8587 112.468 28.1211C112.747 27.3763 113.127 26.7461 113.606 26.2305C114.086 25.7148 114.631 25.3245 115.239 25.0596C115.848 24.7946 116.478 24.6621 117.13 24.6621C117.961 24.6621 118.677 24.8053 119.278 25.0918C119.887 25.3783 120.385 25.7793 120.771 26.2949C121.158 26.8034 121.445 27.4049 121.631 28.0996C121.817 28.7871 121.91 29.5391 121.91 30.3555V31.2471H113.23V29.625H119.923V29.4746C119.894 28.959 119.787 28.4577 119.601 27.9707C119.422 27.4837 119.135 27.0827 118.741 26.7676C118.347 26.4525 117.81 26.2949 117.13 26.2949C116.679 26.2949 116.263 26.3916 115.884 26.585C115.504 26.7712 115.178 27.0505 114.906 27.4229C114.634 27.7952 114.423 28.25 114.272 28.7871C114.122 29.3242 114.047 29.9437 114.047 30.6455V31.0967C114.047 31.6481 114.122 32.1673 114.272 32.6543C114.43 33.1341 114.656 33.5566 114.949 33.9219C115.25 34.2871 115.612 34.5736 116.034 34.7812C116.464 34.9889 116.951 35.0928 117.495 35.0928C118.197 35.0928 118.791 34.9495 119.278 34.6631C119.765 34.3766 120.191 33.9935 120.557 33.5137L121.76 34.4697C121.509 34.8493 121.19 35.2109 120.804 35.5547C120.417 35.8984 119.941 36.1777 119.375 36.3926C118.816 36.6074 118.154 36.7148 117.388 36.7148ZM126.218 27.3584V36.5H124.23V24.877H126.11L126.218 27.3584ZM125.745 30.248L124.918 30.2158C124.925 29.4209 125.043 28.6868 125.272 28.0137C125.502 27.3333 125.824 26.7425 126.239 26.2412C126.655 25.7399 127.149 25.3532 127.722 25.0811C128.302 24.8018 128.943 24.6621 129.645 24.6621C130.217 24.6621 130.733 24.7409 131.191 24.8984C131.65 25.0488 132.04 25.2923 132.362 25.6289C132.692 25.9655 132.942 26.4023 133.114 26.9395C133.286 27.4694 133.372 28.1175 133.372 28.8838V36.5H131.374V28.8623C131.374 28.2536 131.285 27.7666 131.105 27.4014C130.926 27.029 130.665 26.7604 130.321 26.5957C129.978 26.4238 129.555 26.3379 129.054 26.3379C128.56 26.3379 128.108 26.4417 127.7 26.6494C127.299 26.8571 126.952 27.1436 126.658 27.5088C126.372 27.874 126.146 28.293 125.981 28.7656C125.824 29.2311 125.745 29.7253 125.745 30.248ZM143.717 34.2441V20H145.715V36.5H143.889L143.717 34.2441ZM135.896 30.8174V30.5918C135.896 29.7038 136.004 28.8981 136.219 28.1748C136.441 27.4443 136.752 26.8177 137.153 26.2949C137.562 25.7721 138.045 25.3711 138.604 25.0918C139.169 24.8053 139.799 24.6621 140.494 24.6621C141.225 24.6621 141.862 24.791 142.406 25.0488C142.958 25.2995 143.423 25.6683 143.803 26.1553C144.189 26.6351 144.494 27.2152 144.716 27.8955C144.938 28.5758 145.092 29.3457 145.178 30.2051V31.1934C145.099 32.0456 144.945 32.8118 144.716 33.4922C144.494 34.1725 144.189 34.7526 143.803 35.2324C143.423 35.7122 142.958 36.0811 142.406 36.3389C141.855 36.5895 141.21 36.7148 140.473 36.7148C139.792 36.7148 139.169 36.568 138.604 36.2744C138.045 35.9808 137.562 35.569 137.153 35.0391C136.752 34.5091 136.441 33.8861 136.219 33.1699C136.004 32.4466 135.896 31.6624 135.896 30.8174ZM137.895 30.5918V30.8174C137.895 31.3975 137.952 31.9417 138.066 32.4502C138.188 32.9587 138.374 33.4062 138.625 33.793C138.876 34.1797 139.194 34.484 139.581 34.7061C139.968 34.9209 140.43 35.0283 140.967 35.0283C141.626 35.0283 142.166 34.8887 142.589 34.6094C143.019 34.3301 143.362 33.9613 143.62 33.5029C143.878 33.0446 144.078 32.5469 144.222 32.0098V29.4209C144.136 29.027 144.01 28.6475 143.846 28.2822C143.688 27.9098 143.48 27.5804 143.223 27.2939C142.972 27.0003 142.66 26.7676 142.288 26.5957C141.923 26.4238 141.49 26.3379 140.988 26.3379C140.444 26.3379 139.975 26.4525 139.581 26.6816C139.194 26.9036 138.876 27.2116 138.625 27.6055C138.374 27.9922 138.188 28.4434 138.066 28.959C137.952 29.4674 137.895 30.0117 137.895 30.5918ZM153.632 36.7148C152.823 36.7148 152.089 36.5788 151.43 36.3066C150.778 36.0273 150.216 35.637 149.743 35.1357C149.278 34.6344 148.92 34.04 148.669 33.3525C148.418 32.665 148.293 31.9131 148.293 31.0967V30.6455C148.293 29.7002 148.433 28.8587 148.712 28.1211C148.991 27.3763 149.371 26.7461 149.851 26.2305C150.33 25.7148 150.875 25.3245 151.483 25.0596C152.092 24.7946 152.722 24.6621 153.374 24.6621C154.205 24.6621 154.921 24.8053 155.522 25.0918C156.131 25.3783 156.629 25.7793 157.016 26.2949C157.402 26.8034 157.689 27.4049 157.875 28.0996C158.061 28.7871 158.154 29.5391 158.154 30.3555V31.2471H149.475V29.625H156.167V29.4746C156.138 28.959 156.031 28.4577 155.845 27.9707C155.666 27.4837 155.379 27.0827 154.985 26.7676C154.591 26.4525 154.054 26.2949 153.374 26.2949C152.923 26.2949 152.507 26.3916 152.128 26.585C151.748 26.7712 151.423 27.0505 151.15 27.4229C150.878 27.7952 150.667 28.25 150.517 28.7871C150.366 29.3242 150.291 29.9437 150.291 30.6455V31.0967C150.291 31.6481 150.366 32.1673 150.517 32.6543C150.674 33.1341 150.9 33.5566 151.193 33.9219C151.494 34.2871 151.856 34.5736 152.278 34.7812C152.708 34.9889 153.195 35.0928 153.739 35.0928C154.441 35.0928 155.035 34.9495 155.522 34.6631C156.009 34.3766 156.436 33.9935 156.801 33.5137L158.004 34.4697C157.753 34.8493 157.435 35.2109 157.048 35.5547C156.661 35.8984 156.185 36.1777 155.619 36.3926C155.061 36.6074 154.398 36.7148 153.632 36.7148ZM169.133 34.8672V36.5H160.679V34.8672H169.133ZM168.821 26.2842L161.13 36.5H159.916V35.0391L167.554 24.877H168.821V26.2842ZM167.94 24.877V26.5205H160.002V24.877H167.94ZM175.524 29.0342V30.667H170.282V29.0342H175.524ZM181.003 34.7061L184.183 24.877H186.213L182.034 36.5H180.702L181.003 34.7061ZM178.35 24.877L181.626 34.7598L181.852 36.5H180.52L176.309 24.877H178.35ZM187.427 30.8174V30.5703C187.427 29.7324 187.549 28.9554 187.792 28.2393C188.035 27.516 188.386 26.8893 188.845 26.3594C189.303 25.8223 189.858 25.4069 190.51 25.1133C191.161 24.8125 191.892 24.6621 192.701 24.6621C193.518 24.6621 194.252 24.8125 194.903 25.1133C195.562 25.4069 196.121 25.8223 196.579 26.3594C197.045 26.8893 197.399 27.516 197.643 28.2393C197.886 28.9554 198.008 29.7324 198.008 30.5703V30.8174C198.008 31.6553 197.886 32.4323 197.643 33.1484C197.399 33.8646 197.045 34.4912 196.579 35.0283C196.121 35.5583 195.566 35.9736 194.914 36.2744C194.27 36.568 193.539 36.7148 192.723 36.7148C191.906 36.7148 191.172 36.568 190.521 36.2744C189.869 35.9736 189.31 35.5583 188.845 35.0283C188.386 34.4912 188.035 33.8646 187.792 33.1484C187.549 32.4323 187.427 31.6553 187.427 30.8174ZM189.414 30.5703V30.8174C189.414 31.3975 189.482 31.9453 189.618 32.4609C189.754 32.9694 189.958 33.4206 190.23 33.8145C190.51 34.2083 190.857 34.5199 191.272 34.749C191.688 34.971 192.171 35.082 192.723 35.082C193.267 35.082 193.743 34.971 194.151 34.749C194.567 34.5199 194.91 34.2083 195.183 33.8145C195.455 33.4206 195.659 32.9694 195.795 32.4609C195.938 31.9453 196.01 31.3975 196.01 30.8174V30.5703C196.01 29.9974 195.938 29.4567 195.795 28.9482C195.659 28.4326 195.451 27.9779 195.172 27.584C194.9 27.1829 194.556 26.8678 194.141 26.6387C193.732 26.4095 193.253 26.2949 192.701 26.2949C192.157 26.2949 191.677 26.4095 191.262 26.6387C190.854 26.8678 190.51 27.1829 190.23 27.584C189.958 27.9779 189.754 28.4326 189.618 28.9482C189.482 29.4567 189.414 29.9974 189.414 30.5703ZM207.611 33.8145V24.877H209.609V36.5H207.708L207.611 33.8145ZM207.987 31.3652L208.814 31.3438C208.814 32.1172 208.732 32.8333 208.567 33.4922C208.41 34.1439 208.152 34.7096 207.794 35.1895C207.436 35.6693 206.967 36.0452 206.387 36.3174C205.807 36.5824 205.101 36.7148 204.271 36.7148C203.705 36.7148 203.186 36.6325 202.713 36.4678C202.247 36.3031 201.846 36.0488 201.51 35.7051C201.173 35.3613 200.912 34.9137 200.726 34.3623C200.547 33.8109 200.457 33.1484 200.457 32.375V24.877H202.444V32.3965C202.444 32.9193 202.502 33.3525 202.616 33.6963C202.738 34.0329 202.899 34.3014 203.1 34.502C203.307 34.6953 203.536 34.8314 203.787 34.9102C204.045 34.9889 204.31 35.0283 204.582 35.0283C205.427 35.0283 206.097 34.8672 206.591 34.5449C207.085 34.2155 207.439 33.7751 207.654 33.2236C207.876 32.665 207.987 32.0456 207.987 31.3652ZM219.406 33.417C219.406 33.1305 219.342 32.8656 219.213 32.6221C219.091 32.3714 218.837 32.1458 218.45 31.9453C218.071 31.7376 217.498 31.5586 216.731 31.4082C216.087 31.2721 215.503 31.111 214.98 30.9248C214.465 30.7386 214.024 30.513 213.659 30.248C213.301 29.9831 213.025 29.6715 212.832 29.3135C212.639 28.9554 212.542 28.5365 212.542 28.0566C212.542 27.5983 212.642 27.165 212.843 26.7568C213.05 26.3486 213.34 25.987 213.713 25.6719C214.092 25.3568 214.547 25.1097 215.077 24.9307C215.607 24.7516 216.198 24.6621 216.85 24.6621C217.781 24.6621 218.576 24.8268 219.234 25.1562C219.893 25.4857 220.398 25.9261 220.749 26.4775C221.1 27.0218 221.275 27.627 221.275 28.293H219.288C219.288 27.9707 219.191 27.6592 218.998 27.3584C218.812 27.0505 218.536 26.7962 218.171 26.5957C217.813 26.3952 217.372 26.2949 216.85 26.2949C216.298 26.2949 215.851 26.3809 215.507 26.5527C215.17 26.7174 214.923 26.9287 214.766 27.1865C214.615 27.4443 214.54 27.7165 214.54 28.0029C214.54 28.2178 214.576 28.4111 214.647 28.583C214.726 28.7477 214.862 28.9017 215.056 29.0449C215.249 29.181 215.521 29.3099 215.872 29.4316C216.223 29.5534 216.671 29.6751 217.215 29.7969C218.167 30.0117 218.951 30.2695 219.567 30.5703C220.183 30.8711 220.642 31.2399 220.942 31.6768C221.243 32.1136 221.394 32.6436 221.394 33.2666C221.394 33.7751 221.286 34.2406 221.071 34.6631C220.864 35.0856 220.559 35.4508 220.158 35.7588C219.764 36.0596 219.292 36.2959 218.74 36.4678C218.196 36.6325 217.584 36.7148 216.903 36.7148C215.879 36.7148 215.013 36.5322 214.304 36.167C213.595 35.8018 213.058 35.3291 212.692 34.749C212.327 34.1689 212.145 33.5566 212.145 32.9121H214.143C214.171 33.4564 214.329 33.8896 214.615 34.2119C214.902 34.527 215.253 34.7526 215.668 34.8887C216.083 35.0176 216.495 35.082 216.903 35.082C217.448 35.082 217.902 35.0104 218.268 34.8672C218.64 34.724 218.923 34.527 219.116 34.2764C219.31 34.0257 219.406 33.7393 219.406 33.417ZM236.314 34.5127V28.5293C236.314 28.071 236.221 27.6735 236.035 27.3369C235.856 26.9932 235.584 26.7282 235.219 26.542C234.854 26.3558 234.402 26.2627 233.865 26.2627C233.364 26.2627 232.924 26.3486 232.544 26.5205C232.172 26.6924 231.878 26.918 231.663 27.1973C231.455 27.4766 231.352 27.7773 231.352 28.0996H229.364C229.364 27.6842 229.472 27.2725 229.687 26.8643C229.901 26.4561 230.209 26.0872 230.61 25.7578C231.019 25.4212 231.506 25.1562 232.071 24.9629C232.644 24.7624 233.282 24.6621 233.983 24.6621C234.828 24.6621 235.573 24.8053 236.218 25.0918C236.869 25.3783 237.378 25.8115 237.743 26.3916C238.116 26.9645 238.302 27.6842 238.302 28.5508V33.9648C238.302 34.3516 238.334 34.7633 238.398 35.2002C238.47 35.637 238.574 36.013 238.71 36.3281V36.5H236.637C236.536 36.2708 236.458 35.9665 236.4 35.5869C236.343 35.2002 236.314 34.8421 236.314 34.5127ZM236.658 29.4531L236.68 30.8496H234.671C234.105 30.8496 233.6 30.8962 233.156 30.9893C232.712 31.0752 232.34 31.2077 232.039 31.3867C231.738 31.5658 231.509 31.7913 231.352 32.0635C231.194 32.3285 231.115 32.64 231.115 32.998C231.115 33.3633 231.198 33.6963 231.362 33.9971C231.527 34.2979 231.774 34.5378 232.104 34.7168C232.44 34.8887 232.852 34.9746 233.339 34.9746C233.948 34.9746 234.485 34.8457 234.95 34.5879C235.416 34.3301 235.785 34.015 236.057 33.6426C236.336 33.2702 236.486 32.9085 236.508 32.5576L237.356 33.5137C237.306 33.8145 237.17 34.1475 236.948 34.5127C236.726 34.8779 236.429 35.2288 236.057 35.5654C235.691 35.8949 235.255 36.1706 234.746 36.3926C234.245 36.6074 233.679 36.7148 233.049 36.7148C232.261 36.7148 231.57 36.5609 230.976 36.2529C230.388 35.945 229.93 35.5332 229.601 35.0176C229.278 34.4948 229.117 33.9111 229.117 33.2666C229.117 32.6436 229.239 32.0957 229.482 31.623C229.726 31.1432 230.077 30.7458 230.535 30.4307C230.993 30.1084 231.545 29.8649 232.189 29.7002C232.834 29.5355 233.554 29.4531 234.349 29.4531H236.658ZM233.253 20L235.326 23.1582H233.618L230.847 20H233.253ZM250.419 34.7061L253.599 24.877H255.629L251.45 36.5H250.118L250.419 34.7061ZM247.766 24.877L251.042 34.7598L251.268 36.5H249.936L245.725 24.877H247.766ZM262.214 36.7148C261.405 36.7148 260.671 36.5788 260.012 36.3066C259.36 36.0273 258.798 35.637 258.325 35.1357C257.86 34.6344 257.502 34.04 257.251 33.3525C257 32.665 256.875 31.9131 256.875 31.0967V30.6455C256.875 29.7002 257.015 28.8587 257.294 28.1211C257.573 27.3763 257.953 26.7461 258.433 26.2305C258.912 25.7148 259.457 25.3245 260.065 25.0596C260.674 24.7946 261.304 24.6621 261.956 24.6621C262.787 24.6621 263.503 24.8053 264.104 25.0918C264.713 25.3783 265.211 25.7793 265.598 26.2949C265.984 26.8034 266.271 27.4049 266.457 28.0996C266.643 28.7871 266.736 29.5391 266.736 30.3555V31.2471H258.057V29.625H264.749V29.4746C264.72 28.959 264.613 28.4577 264.427 27.9707C264.248 27.4837 263.961 27.0827 263.567 26.7676C263.174 26.4525 262.636 26.2949 261.956 26.2949C261.505 26.2949 261.09 26.3916 260.71 26.585C260.33 26.7712 260.005 27.0505 259.732 27.4229C259.46 27.7952 259.249 28.25 259.099 28.7871C258.948 29.3242 258.873 29.9437 258.873 30.6455V31.0967C258.873 31.6481 258.948 32.1673 259.099 32.6543C259.256 33.1341 259.482 33.5566 259.775 33.9219C260.076 34.2871 260.438 34.5736 260.86 34.7812C261.29 34.9889 261.777 35.0928 262.321 35.0928C263.023 35.0928 263.618 34.9495 264.104 34.6631C264.591 34.3766 265.018 33.9935 265.383 33.5137L266.586 34.4697C266.335 34.8493 266.017 35.2109 265.63 35.5547C265.243 35.8984 264.767 36.1777 264.201 36.3926C263.643 36.6074 262.98 36.7148 262.214 36.7148ZM271.044 27.3584V36.5H269.057V24.877H270.937L271.044 27.3584ZM270.571 30.248L269.744 30.2158C269.751 29.4209 269.869 28.6868 270.099 28.0137C270.328 27.3333 270.65 26.7425 271.065 26.2412C271.481 25.7399 271.975 25.3532 272.548 25.0811C273.128 24.8018 273.769 24.6621 274.471 24.6621C275.044 24.6621 275.559 24.7409 276.018 24.8984C276.476 25.0488 276.866 25.2923 277.188 25.6289C277.518 25.9655 277.769 26.4023 277.94 26.9395C278.112 27.4694 278.198 28.1175 278.198 28.8838V36.5H276.2V28.8623C276.2 28.2536 276.111 27.7666 275.932 27.4014C275.753 27.029 275.491 26.7604 275.147 26.5957C274.804 26.4238 274.381 26.3379 273.88 26.3379C273.386 26.3379 272.935 26.4417 272.526 26.6494C272.125 26.8571 271.778 27.1436 271.484 27.5088C271.198 27.874 270.972 28.293 270.808 28.7656C270.65 29.2311 270.571 29.7253 270.571 30.248ZM283.376 24.877V36.5H281.378V24.877H283.376ZM281.228 21.7939C281.228 21.4717 281.324 21.1995 281.518 20.9775C281.718 20.7555 282.012 20.6445 282.398 20.6445C282.778 20.6445 283.068 20.7555 283.269 20.9775C283.476 21.1995 283.58 21.4717 283.58 21.7939C283.58 22.1019 283.476 22.3669 283.269 22.5889C283.068 22.8037 282.778 22.9111 282.398 22.9111C282.012 22.9111 281.718 22.8037 281.518 22.5889C281.324 22.3669 281.228 22.1019 281.228 21.7939ZM288.554 26.7031V36.5H286.566V24.877H288.5L288.554 26.7031ZM292.185 24.8125L292.174 26.6602C292.009 26.6243 291.852 26.6029 291.701 26.5957C291.558 26.5814 291.393 26.5742 291.207 26.5742C290.749 26.5742 290.344 26.6458 289.993 26.7891C289.642 26.9323 289.345 27.1328 289.102 27.3906C288.858 27.6484 288.665 27.9564 288.521 28.3145C288.385 28.6654 288.296 29.0521 288.253 29.4746L287.694 29.7969C287.694 29.0951 287.762 28.4362 287.898 27.8203C288.042 27.2044 288.26 26.6602 288.554 26.1875C288.847 25.7077 289.22 25.3353 289.671 25.0703C290.129 24.7982 290.674 24.6621 291.304 24.6621C291.447 24.6621 291.612 24.68 291.798 24.7158C291.984 24.7445 292.113 24.7767 292.185 24.8125Z" fill="#1D1B20"/>
</svg>
